<?xml version="1.0" encoding="UTF-8" ?>
<!DOCTYPE svg PUBLIC "-//W3C//DTD SVG 1.1//EN" "http://www.w3.org/Graphics/SVG/1.1/DTD/svg11.dtd">
<svg width="2226pt" height="650pt" viewBox="0 0 2226 650" version="1.1" xmlns="http://www.w3.org/2000/svg">
<path fill="#006c3a" stroke="#006c3a" stroke-width="0.09375" opacity="1.00" d=" M 806.4 50.4 C 808.3 48.6 810.0 46.6 812.1 45.1 C 813.6 44.9 814.6 46.5 815.7 47.3 C 846.0 77.8 876.6 108.0 906.8 138.7 C 921.7 154.4 937.7 169.1 952.4 185.0 C 938.1 199.9 923.4 214.3 908.8 228.8 C 907.1 230.9 904.8 228.9 903.4 227.6 C 861.3 185.4 819.2 143.1 777.1 100.9 C 774.1 97.8 770.7 95.1 768.1 91.7 C 766.7 90.2 768.4 88.5 769.5 87.4 C 781.9 75.2 794.1 62.8 806.4 50.4 Z" />
<path fill="#73be44" stroke="#73be44" stroke-width="0.09375" opacity="1.00" d=" M 1001.3 44.7 C 1002.6 45.6 1004.0 46.6 1005.2 47.8 C 1016.9 59.8 1028.8 71.5 1040.7 83.3 C 1042.6 85.2 1044.7 86.9 1046.2 89.1 C 1047.1 90.9 1045.1 92.1 1044.2 93.3 C 1013.5 123.8 983.2 154.7 952.4 185.0 C 937.7 169.1 921.7 154.4 906.8 138.7 C 915.9 130.5 924.2 121.5 933.0 113.0 C 955.7 90.2 978.4 67.3 1001.3 44.7 Z" />
<path fill="#73be44" stroke="#73be44" stroke-width="0.09375" opacity="1.00" d=" M 2005.4 78.4 C 2031.1 77.2 2057.1 78.5 2082.4 83.8 C 2110.3 89.7 2137.7 101.6 2158.0 122.0 C 2170.8 134.8 2180.1 150.8 2186.1 167.8 C 2192.7 186.7 2195.8 206.6 2196.6 226.6 C 2197.8 259.4 2195.2 293.3 2181.7 323.7 C 2174.1 340.6 2162.8 355.8 2148.3 367.3 C 2124.3 386.4 2094.1 396.0 2064.1 400.0 C 2037.2 403.4 2010.0 403.5 1983.1 400.4 C 1949.3 396.3 1914.9 385.1 1889.5 361.5 C 1868.0 341.6 1856.1 313.4 1851.1 285.0 C 1847.2 262.9 1846.7 240.3 1848.3 217.9 C 1849.9 198.0 1853.7 178.0 1861.6 159.6 C 1868.0 144.5 1877.2 130.5 1889.3 119.3 C 1910.8 99.1 1939.2 88.0 1967.9 82.7 C 1980.3 80.3 1992.8 79.0 2005.4 78.4 M 2006.5 137.6 C 1995.0 138.8 1983.7 141.3 1973.3 146.2 C 1960.2 152.4 1949.4 162.9 1942.8 175.7 C 1932.7 194.8 1929.7 216.7 1929.6 238.0 C 1929.3 257.2 1931.2 276.8 1938.1 294.9 C 1943.6 309.0 1952.8 322.1 1965.8 330.1 C 1982.2 340.4 2002.0 343.4 2021.0 343.6 C 2040.0 343.8 2059.7 341.1 2076.4 331.5 C 2089.7 324.0 2099.6 311.3 2105.3 297.3 C 2113.2 278.3 2115.0 257.4 2114.9 237.0 C 2114.5 217.1 2111.9 196.8 2103.3 178.7 C 2096.7 164.9 2085.7 152.9 2071.6 146.5 C 2051.4 136.9 2028.4 135.8 2006.5 137.6 Z" />
<path fill="#73be44" stroke="#73be44" stroke-width="0.09375" opacity="1.00" d=" M 1624.4 83.5 C 1638.3 82.5 1652.1 82.9 1666.0 82.8 C 1685.6 83.0 1705.4 81.7 1724.8 85.5 C 1745.1 89.1 1764.4 97.0 1781.4 108.5 C 1792.0 115.8 1801.5 124.9 1808.1 135.9 C 1816.5 150.0 1820.0 166.8 1818.9 183.1 C 1818.5 190.1 1813.9 196.6 1807.6 199.6 C 1800.4 203.8 1791.9 202.4 1784.0 202.6 C 1775.6 202.3 1766.8 203.8 1758.9 200.2 C 1749.7 196.1 1743.6 187.3 1739.6 178.4 C 1733.2 164.3 1721.6 152.1 1706.6 147.4 C 1694.2 143.2 1680.9 144.7 1668.0 144.5 C 1648.1 144.5 1627.8 143.5 1608.5 149.4 C 1597.8 152.6 1587.5 158.6 1581.1 168.0 C 1576.6 174.8 1573.8 182.6 1571.6 190.4 C 1566.8 209.9 1566.4 230.1 1566.7 250.0 C 1567.2 266.4 1568.9 283.0 1574.3 298.7 C 1577.8 308.7 1583.8 318.3 1593.0 324.1 C 1607.5 333.4 1625.2 335.5 1642.0 336.1 C 1659.0 336.2 1676.0 336.2 1693.0 336.1 C 1707.2 336.0 1721.6 330.9 1731.5 320.5 C 1737.4 314.7 1741.6 307.5 1745.0 300.0 C 1749.1 291.6 1755.2 283.7 1764.0 280.0 C 1771.3 276.9 1779.3 278.0 1787.0 277.9 C 1793.9 278.0 1800.8 277.1 1807.6 278.6 C 1817.0 281.6 1823.2 291.4 1823.4 301.0 C 1823.8 318.1 1819.2 335.4 1809.4 349.4 C 1800.1 362.5 1787.0 372.4 1772.9 379.8 C 1751.0 391.8 1725.9 397.4 1701.0 397.6 C 1683.7 397.6 1666.3 397.6 1649.0 397.6 C 1628.4 397.8 1607.7 396.3 1587.6 391.5 C 1559.9 385.1 1533.2 371.2 1515.2 348.8 C 1504.5 335.5 1497.3 319.8 1492.6 303.6 C 1486.9 283.9 1484.8 263.4 1484.6 243.0 C 1484.5 221.5 1486.3 199.8 1492.0 179.0 C 1496.7 161.9 1504.2 145.3 1515.5 131.5 C 1524.8 120.0 1536.4 110.5 1549.4 103.4 C 1572.3 90.7 1598.5 85.3 1624.4 83.5 Z" />
<path fill="#73be44" stroke="#73be44" stroke-width="0.09375" opacity="1.00" d=" M 288.2 85.4 C 291.3 84.3 294.7 84.5 298.0 84.4 C 309.6 84.5 321.3 84.4 332.9 84.5 C 343.1 84.7 352.4 93.7 352.3 104.0 C 352.4 194.7 352.2 285.3 352.4 376.0 C 352.5 386.7 342.7 396.2 332.1 395.9 C 307.7 395.8 283.3 395.9 259.0 395.9 C 246.6 395.1 236.0 386.7 229.2 376.8 C 190.9 317.7 152.9 258.4 114.7 199.2 C 112.7 196.1 110.8 192.9 108.5 190.0 C 108.7 252.0 108.5 314.0 108.6 376.0 C 108.7 386.3 99.4 395.8 89.1 395.9 C 74.7 395.7 60.3 396.2 46.0 395.6 C 36.5 393.9 28.7 384.8 29.1 375.1 C 29.1 285.0 29.1 195.0 29.1 104.9 C 28.9 94.3 38.3 84.4 49.0 84.5 C 70.7 84.5 92.3 84.5 114.0 84.6 C 126.2 85.6 136.0 94.7 142.7 104.3 C 185.7 170.3 228.5 236.4 271.5 302.4 C 272.2 303.5 273.0 304.6 273.9 305.6 C 274.3 238.4 273.8 171.2 274.1 103.9 C 274.0 95.5 280.4 87.9 288.2 85.4 Z" />
<path fill="#73be44" stroke="#73be44" stroke-width="0.09375" opacity="1.00" d=" M 414.4 104.0 C 414.4 93.3 424.5 84.2 435.0 84.5 C 518.3 84.5 601.7 84.4 685.0 84.5 C 695.7 84.1 705.4 93.4 705.6 104.0 C 705.8 111.6 705.8 119.3 705.6 127.0 C 705.3 137.6 695.5 146.6 685.0 146.2 C 622.1 146.3 559.2 146.2 496.3 146.2 C 496.4 167.2 496.4 188.1 496.3 209.0 C 551.2 209.3 606.1 208.9 661.1 209.2 C 671.0 209.8 679.5 219.1 679.4 229.0 C 679.4 236.3 679.4 243.7 679.4 251.0 C 679.4 259.3 673.2 266.9 665.4 269.5 C 661.1 271.0 656.5 270.4 652.0 270.5 C 621.3 270.6 590.7 270.6 560.0 270.6 C 538.8 270.7 517.5 270.2 496.3 270.8 C 496.4 291.9 496.4 313.0 496.3 334.1 C 520.5 334.6 544.8 334.2 569.0 334.3 C 607.7 334.3 646.4 334.2 685.1 334.3 C 693.0 334.0 700.4 339.5 703.3 346.7 C 705.3 351.2 704.7 356.2 704.8 361.0 C 704.8 366.3 704.9 371.7 704.7 377.1 C 704.3 386.8 695.7 395.3 686.0 395.8 C 604.7 395.9 523.3 395.8 442.0 396.0 C 438.7 395.9 435.3 396.0 432.0 395.7 C 422.4 394.6 414.4 385.7 414.4 376.0 C 414.4 285.4 414.4 194.7 414.4 104.0 Z" />
<path fill="#73be44" stroke="#73be44" stroke-width="0.09375" opacity="1.00" d=" M 1247.6 90.5 C 1268.3 85.6 1289.7 84.4 1311.0 84.5 C 1348.3 84.5 1385.7 84.5 1423.0 84.6 C 1433.3 84.8 1441.0 95.1 1440.6 104.9 C 1440.7 195.3 1440.7 285.7 1440.6 376.0 C 1440.8 383.9 1435.5 391.3 1428.3 394.3 C 1424.4 396.1 1420.1 395.8 1416.0 395.8 C 1403.3 395.9 1390.6 395.9 1377.9 395.8 C 1370.4 395.8 1363.1 390.9 1360.2 384.0 C 1358.8 380.8 1358.6 377.4 1358.6 374.0 C 1358.7 356.4 1358.6 338.7 1358.8 321.1 C 1335.2 320.3 1311.6 321.0 1288.0 320.8 C 1260.1 321.0 1232.3 320.4 1204.4 321.1 C 1200.3 337.6 1195.7 354.0 1191.4 370.5 C 1190.1 375.2 1189.1 380.2 1186.2 384.2 C 1181.1 391.1 1172.8 395.9 1164.1 395.8 C 1150.4 395.9 1136.7 395.8 1123.0 395.9 C 1118.9 395.9 1114.4 395.6 1111.1 392.9 C 1106.2 389.1 1104.5 382.2 1106.2 376.3 C 1122.5 314.3 1138.8 252.3 1155.2 190.4 C 1159.4 175.6 1162.1 160.1 1169.4 146.4 C 1176.5 132.3 1187.1 120.0 1200.0 110.9 C 1214.2 100.8 1230.7 94.4 1247.6 90.5 M 1246.9 173.0 C 1243.2 178.8 1240.8 185.4 1239.1 192.1 C 1233.1 214.5 1226.7 236.8 1220.8 259.2 C 1241.9 259.4 1262.9 259.2 1284.0 259.3 C 1308.9 259.2 1333.8 259.5 1358.7 259.1 C 1358.6 221.5 1358.6 183.9 1358.7 146.2 C 1337.4 146.2 1316.2 146.2 1295.0 146.2 C 1275.8 146.2 1257.0 156.7 1246.9 173.0 Z" />
<path fill="#006c3a" stroke="#006c3a" stroke-width="0.09375" opacity="1.00" d=" M 1053.4 104.4 C 1054.9 102.9 1057.2 100.3 1059.3 102.6 C 1073.2 116.4 1087.0 130.3 1100.9 144.1 C 1102.6 145.4 1102.7 147.6 1100.8 148.9 C 1070.2 179.6 1039.5 210.2 1008.8 240.9 C 993.2 256.1 977.8 271.5 962.6 287.1 C 947.9 273.0 933.6 258.3 919.2 243.8 C 917.4 242.4 917.8 239.7 919.5 238.5 C 964.1 193.8 1008.8 149.1 1053.4 104.4 Z" />
<path fill="#73be44" stroke="#73be44" stroke-width="0.09375" opacity="1.00" d=" M 753.3 104.3 C 754.5 102.7 756.8 102.0 758.1 103.9 C 788.9 134.5 819.8 165.1 850.2 196.1 C 835.4 211.6 820.0 226.7 804.6 241.7 C 773.8 211.4 743.5 180.6 712.8 150.2 C 711.4 149.0 710.6 146.7 712.3 145.4 C 725.8 131.5 739.7 118.1 753.3 104.3 Z" />
<path fill="#006c3a" stroke="#006c3a" stroke-width="0.09375" opacity="1.00" d=" M 850.2 196.1 C 864.9 210.3 879.2 224.9 893.7 239.3 C 895.1 240.5 895.7 242.8 894.0 244.1 C 874.9 263.6 855.4 282.8 836.2 302.2 C 811.8 326.2 788.0 350.6 763.7 374.7 C 761.4 376.8 759.5 379.4 756.8 381.1 C 755.5 382.0 754.3 380.4 753.3 379.7 C 739.7 366.3 726.3 352.7 712.7 339.3 C 711.2 338.1 710.6 335.7 712.4 334.4 C 743.1 303.5 774.2 272.9 804.6 241.7 C 820.0 226.7 835.4 211.6 850.2 196.1 Z" />
<path fill="#73be44" stroke="#73be44" stroke-width="0.09375" opacity="1.00" d=" M 962.6 287.1 C 977.8 271.5 993.2 256.1 1008.8 240.9 C 1039.3 272.2 1070.5 302.8 1101.2 333.8 C 1102.8 334.9 1102.3 336.9 1100.9 337.9 C 1087.1 351.8 1073.2 365.6 1059.3 379.4 C 1057.8 381.2 1055.4 380.6 1054.1 378.9 C 1023.6 348.3 992.9 317.9 962.6 287.1 Z" />
<path fill="#006c3a" stroke="#006c3a" stroke-width="0.09375" opacity="1.00" d=" M 905.4 252.1 C 906.5 252.8 907.7 253.4 908.6 254.3 C 953.8 299.5 999.0 344.7 1044.1 389.9 C 1046.2 391.5 1045.2 394.1 1043.4 395.5 C 1029.9 408.9 1016.5 422.5 1003.0 435.9 C 1000.6 438.5 998.0 435.4 996.2 433.8 C 966.1 403.8 936.2 373.6 906.1 343.6 C 894.0 330.8 881.2 318.7 869.0 306.0 C 866.2 303.0 863.4 300.1 860.2 297.5 C 875.1 282.2 890.3 267.2 905.4 252.1 Z" />
<path fill="#73be44" stroke="#73be44" stroke-width="0.09375" opacity="1.00" d=" M 772.3 385.3 C 801.7 356.1 830.7 326.5 860.2 297.5 C 863.4 300.1 866.2 303.0 869.0 306.0 C 881.2 318.7 894.0 330.8 906.1 343.6 C 895.2 354.2 884.7 365.2 874.0 376.0 C 861.0 389.0 847.8 401.8 834.9 414.9 C 827.2 422.5 819.7 430.5 811.8 437.9 C 797.4 424.4 783.8 410.1 769.9 396.1 C 768.6 394.8 767.2 393.6 766.3 392.0 C 767.7 389.3 770.2 387.5 772.3 385.3 Z" />
<path fill="#110000" stroke="#110000" stroke-width="0.09375" opacity="0.26" d=" M 207.2 470.3 C 230.8 469.8 254.4 470.2 278.0 470.1 C 296.3 470.1 314.6 469.9 332.9 470.2 C 332.9 470.6 332.9 471.5 332.9 472.0 C 291.0 472.0 249.2 471.9 207.3 472.0 C 207.3 471.6 207.2 470.7 207.2 470.3 Z" />
<path fill="#999999" stroke="#999999" stroke-width="0.09375" opacity="1.00" d=" M 1893.2 470.1 C 1933.7 470.0 1974.1 469.9 2014.5 470.1 C 2014.6 491.8 2014.5 513.5 2014.6 535.1 C 2003.7 535.7 1992.8 535.4 1981.9 535.4 C 1981.8 525.7 1981.9 516.0 1981.8 506.4 C 1963.6 506.3 1945.5 506.3 1927.4 506.3 C 1927.2 524.2 1927.3 542.0 1927.5 559.9 C 1955.3 560.6 1983.2 559.6 2011.0 560.1 C 2014.3 560.2 2017.7 560.2 2021.0 560.1 C 2021.0 572.0 2021.0 583.8 2021.0 595.7 C 1978.5 595.2 1935.9 595.7 1893.3 595.6 C 1893.3 553.8 1893.2 511.9 1893.2 470.1 Z" />
<path fill="#e20000" stroke="#e20000" stroke-width="0.09375" opacity="1.00" d=" M 2021.0 470.0 C 2062.8 470.0 2104.6 470.0 2146.4 470.0 C 2146.5 511.8 2146.5 553.6 2146.4 595.5 C 2124.7 595.6 2102.9 595.6 2081.2 595.3 C 2081.3 583.6 2081.1 572.0 2081.2 560.3 C 2090.8 560.0 2100.4 560.2 2110.0 560.1 C 2110.4 543.1 2110.6 526.0 2110.1 509.0 C 2109.7 507.5 2110.7 504.7 2108.7 504.3 C 2101.1 503.6 2093.6 504.0 2086.0 503.9 C 2076.1 504.0 2066.2 503.8 2056.4 504.1 C 2056.5 522.8 2056.5 541.4 2056.3 560.1 C 2055.9 572.0 2055.9 583.9 2056.3 595.8 C 2056.5 612.0 2056.6 628.3 2056.1 644.6 C 2044.4 644.7 2032.8 644.6 2021.2 644.5 C 2020.9 628.2 2021.1 611.9 2021.0 595.7 C 2021.0 583.8 2021.0 572.0 2021.0 560.1 C 2021.1 530.1 2021.0 500.1 2021.0 470.0 Z" />
<path fill="#999999" stroke="#999999" stroke-width="0.09375" opacity="1.00" d=" M 79.6 471.7 C 120.0 471.7 160.5 471.5 200.9 472.0 C 200.9 493.6 201.0 515.2 200.9 536.9 C 190.1 536.8 179.2 536.9 168.4 536.8 C 168.3 527.1 168.4 517.5 168.1 507.8 C 150.0 507.8 131.9 507.5 113.8 507.9 C 113.8 524.9 113.3 542.0 114.0 559.0 C 113.6 562.6 117.8 561.4 120.0 561.6 C 149.1 562.0 178.2 561.4 207.4 561.7 C 207.4 573.5 207.4 585.3 207.4 597.1 C 164.8 597.2 122.2 597.1 79.6 597.1 C 79.5 555.3 79.5 513.5 79.6 471.7 Z" />
<path fill="#e20000" stroke="#e20000" stroke-width="0.09375" opacity="1.00" d=" M 207.3 472.0 C 249.2 471.9 291.0 472.0 332.9 472.0 C 332.7 513.7 332.9 555.4 332.7 597.1 C 311.1 597.2 289.4 597.2 267.8 596.9 C 267.5 585.2 267.6 573.5 267.8 561.7 C 277.4 561.6 287.1 561.7 296.7 561.6 C 296.7 542.9 296.9 524.2 296.5 505.5 C 278.7 505.5 260.8 505.2 243.0 505.4 C 242.4 524.1 243.0 542.9 242.7 561.6 C 242.5 573.4 242.5 585.3 242.7 597.2 C 242.8 613.4 242.7 629.7 242.8 645.9 C 231.0 646.0 219.1 646.1 207.3 645.9 C 207.5 629.6 207.4 613.3 207.4 597.1 C 207.4 585.3 207.4 573.5 207.4 561.7 C 207.4 531.8 207.5 501.9 207.3 472.0 Z" />
<path fill="#f9f9f9" stroke="#f9f9f9" stroke-width="0.09375" opacity="1.00" d=" M 464.6 477.7 C 476.7 473.8 490.4 474.4 501.8 480.2 C 512.5 486.1 518.4 497.8 520.7 509.3 C 514.8 510.4 508.9 511.0 503.0 511.5 C 500.0 508.1 499.0 503.4 495.9 500.1 C 491.3 494.2 483.2 492.5 476.2 493.6 C 467.2 494.9 458.8 500.4 454.3 508.3 C 447.0 520.4 444.9 535.1 446.2 549.0 C 447.0 556.9 451.9 565.2 460.1 567.1 C 469.8 569.5 480.0 566.9 489.0 562.9 C 494.5 559.3 493.3 551.5 494.8 545.9 C 486.6 545.3 478.4 545.7 470.2 545.6 C 471.5 539.5 472.3 533.3 474.1 527.4 C 488.3 527.2 502.6 527.1 516.9 527.4 C 514.3 542.7 511.9 558.1 508.0 573.2 C 499.3 580.8 487.7 584.7 476.3 586.3 C 464.9 587.5 452.4 587.2 442.6 580.4 C 433.0 573.8 428.4 562.3 426.8 551.2 C 424.8 534.0 428.5 516.1 437.1 501.0 C 443.2 490.4 452.7 481.3 464.6 477.7 Z" />
<path fill="#f9f9f9" stroke="#f9f9f9" stroke-width="0.09375" opacity="1.00" d=" M 968.0 492.0 C 978.0 479.7 994.7 473.2 1010.4 475.8 C 1015.9 476.7 1021.4 478.7 1025.8 482.2 C 1034.4 488.9 1039.6 499.7 1039.8 510.6 C 1033.6 511.0 1027.5 511.8 1021.3 511.9 C 1019.2 506.6 1017.7 500.5 1012.7 497.2 C 1005.9 493.0 996.9 494.2 990.3 498.3 C 983.2 502.7 978.7 510.3 976.0 518.0 C 972.7 527.6 971.3 537.9 972.4 548.0 C 973.2 554.8 976.3 561.9 982.3 565.7 C 989.1 570.0 998.4 568.4 1004.4 563.4 C 1009.6 559.1 1012.3 552.6 1015.1 546.6 C 1021.8 546.9 1028.4 548.3 1035.0 549.5 C 1031.4 561.9 1024.0 573.8 1012.8 580.8 C 1001.8 587.6 987.7 588.7 975.6 584.5 C 968.7 582.2 963.0 576.9 959.2 570.8 C 953.6 561.6 952.2 550.6 952.3 540.0 C 952.0 522.9 956.9 505.3 968.0 492.0 Z" />
<path fill="#f9f9f9" stroke="#f9f9f9" stroke-width="0.09375" opacity="1.00" d=" M 1437.2 480.2 C 1437.3 476.6 1441.5 477.1 1444.0 477.0 C 1458.9 477.3 1474.0 476.1 1488.8 478.3 C 1497.7 480.0 1504.7 487.9 1506.3 496.6 C 1508.3 509.3 1505.4 523.1 1496.8 532.8 C 1492.8 537.7 1487.0 540.7 1480.9 542.1 C 1469.3 545.2 1457.1 543.1 1445.2 544.2 C 1442.4 557.8 1440.8 571.7 1437.2 585.1 C 1430.8 585.0 1424.4 585.2 1418.0 585.0 C 1423.6 549.9 1430.9 515.1 1437.2 480.2 M 1454.4 495.4 C 1452.4 505.5 1450.4 515.6 1448.9 525.9 C 1457.1 525.9 1465.4 526.4 1473.4 524.4 C 1482.9 522.1 1488.7 511.1 1486.2 501.8 C 1485.4 499.0 1482.9 496.5 1479.9 496.0 C 1471.5 494.5 1462.9 494.9 1454.4 495.4 Z" />
<path fill="#f9f9f9" stroke="#f9f9f9" stroke-width="0.09375" opacity="1.00" d=" M 1686.3 477.3 C 1692.3 476.8 1698.4 477.2 1704.4 477.0 C 1703.3 489.5 1700.0 501.6 1698.0 513.9 C 1703.7 510.7 1709.1 507.0 1715.6 505.6 C 1721.7 504.2 1728.9 504.8 1733.7 509.3 C 1738.9 514.2 1740.5 521.9 1739.6 528.8 C 1737.0 546.6 1733.5 564.2 1729.9 581.9 C 1729.8 584.4 1727.0 585.0 1725.0 585.2 C 1720.3 585.7 1715.5 584.8 1710.8 584.8 C 1712.9 566.0 1718.3 547.7 1720.3 528.9 C 1720.9 524.6 1717.3 520.2 1712.9 520.2 C 1706.9 520.5 1701.7 524.6 1698.4 529.4 C 1693.3 536.8 1692.2 546.0 1690.3 554.6 C 1688.3 564.2 1687.4 574.1 1684.7 583.6 C 1679.1 586.9 1672.2 584.6 1666.0 584.7 C 1671.8 550.0 1678.6 515.5 1685.1 480.9 C 1685.5 479.7 1685.2 478.1 1686.3 477.3 Z" />
<path fill="#f9f9f9" stroke="#f9f9f9" stroke-width="0.09375" opacity="1.00" d=" M 1222.2 492.2 C 1227.9 487.9 1234.0 484.1 1240.3 480.9 C 1239.7 489.5 1237.4 498.0 1236.1 506.6 C 1239.9 506.6 1243.6 506.7 1247.3 507.0 C 1246.7 512.0 1245.7 516.9 1244.9 521.9 C 1240.9 522.5 1236.9 522.8 1233.0 523.1 C 1230.7 535.4 1228.1 547.6 1226.1 560.0 C 1225.5 563.2 1225.9 566.4 1226.3 569.7 C 1230.1 570.1 1234.0 570.4 1237.8 570.8 C 1236.8 575.8 1236.0 580.8 1234.9 585.8 C 1228.2 586.9 1221.1 587.8 1214.6 585.3 C 1209.9 583.6 1206.3 579.1 1205.9 574.0 C 1205.0 566.7 1207.1 559.4 1208.3 552.2 C 1210.1 542.6 1211.8 533.1 1213.8 523.6 C 1210.8 523.1 1207.9 522.5 1205.0 521.9 C 1205.5 517.0 1206.5 512.2 1207.3 507.3 C 1210.5 506.8 1213.7 506.4 1216.9 506.0 C 1218.2 501.3 1217.6 495.2 1222.2 492.2 Z" />
<path fill="#f9f9f9" stroke="#f9f9f9" stroke-width="0.09375" opacity="1.00" d=" M 568.4 506.3 C 573.0 504.1 578.3 505.5 583.0 506.4 C 581.9 512.5 579.1 518.0 576.7 523.6 C 568.3 523.1 559.3 526.6 555.3 534.3 C 547.4 550.2 547.3 568.4 542.1 585.1 C 536.1 585.0 530.0 585.2 523.9 584.9 C 528.1 558.8 533.6 532.9 538.1 506.9 C 544.1 506.6 550.0 506.5 556.0 506.9 C 555.3 511.0 554.5 515.0 554.1 519.1 C 558.7 514.7 562.3 508.9 568.4 506.3 Z" />
<path fill="#f9f9f9" stroke="#f9f9f9" stroke-width="0.09375" opacity="1.00" d=" M 691.2 513.4 C 697.7 509.0 704.8 504.1 713.1 505.0 C 723.0 505.0 731.3 513.0 734.0 522.1 C 739.1 541.4 735.6 564.5 720.8 578.8 C 713.3 585.9 701.7 589.1 691.9 585.1 C 687.2 583.2 684.2 578.8 679.6 576.8 C 677.7 589.5 675.0 602.1 672.8 614.7 C 666.5 615.1 660.2 615.2 653.9 614.9 C 657.1 593.8 661.5 573.0 665.3 552.1 C 668.4 537.0 670.8 521.8 673.9 506.7 C 679.6 506.6 685.4 506.6 691.2 506.8 C 691.2 509.0 691.1 511.2 691.2 513.4 M 699.4 521.5 C 695.2 523.3 692.2 527.2 690.2 531.3 C 687.1 538.4 685.1 546.2 685.6 554.0 C 685.9 558.5 686.9 563.4 690.3 566.7 C 693.8 570.4 699.8 571.8 704.2 569.2 C 709.9 565.9 713.0 559.8 714.9 553.9 C 717.5 545.6 719.1 536.4 715.8 528.1 C 713.3 522.0 705.5 518.6 699.4 521.5 Z" />
<path fill="#f9f9f9" stroke="#f9f9f9" stroke-width="0.09375" opacity="1.00" d=" M 774.1 512.9 C 780.4 508.8 787.2 504.5 795.0 505.0 C 805.5 504.7 814.5 513.4 816.9 523.2 C 820.5 537.7 819.3 553.8 812.1 567.1 C 808.7 573.3 803.9 579.1 797.8 582.9 C 791.4 586.8 783.4 588.0 776.2 585.8 C 770.8 584.1 767.0 579.8 762.7 576.5 C 759.3 588.6 758.7 601.3 755.3 613.4 C 749.9 617.0 742.7 614.5 736.6 614.9 C 738.1 602.1 741.1 589.6 743.2 577.0 C 747.5 553.6 752.1 530.3 756.3 506.9 C 762.1 506.5 767.9 506.5 773.6 506.9 C 773.8 508.9 773.9 510.9 774.1 512.9 M 783.5 520.7 C 773.8 524.3 770.4 535.2 768.6 544.4 C 767.3 552.7 767.3 563.6 775.3 568.7 C 781.2 572.8 789.3 569.4 792.7 563.7 C 798.6 554.2 801.3 542.6 799.5 531.5 C 798.5 524.3 790.6 518.6 783.5 520.7 Z" />
<path fill="#f9f9f9" stroke="#f9f9f9" stroke-width="0.09375" opacity="1.00" d=" M 860.4 505.5 C 869.8 504.3 880.2 505.1 888.0 511.1 C 895.7 516.9 899.5 526.6 900.2 536.0 C 901.1 548.5 898.0 561.4 890.6 571.6 C 886.6 576.9 881.4 581.7 875.1 584.1 C 865.2 588.0 853.5 588.1 843.9 583.2 C 834.5 578.5 829.0 568.2 827.9 558.1 C 827.0 547.2 828.3 535.9 833.2 526.1 C 838.4 515.5 848.6 507.3 860.4 505.5 M 864.4 521.5 C 859.5 522.5 855.5 525.9 852.9 530.0 C 849.2 536.0 847.4 543.0 846.9 550.0 C 846.4 555.7 847.4 562.1 851.6 566.3 C 855.4 570.6 862.0 571.5 867.1 569.0 C 870.1 567.6 872.4 565.0 874.3 562.3 C 879.7 554.8 881.9 545.2 881.3 536.0 C 881.0 531.4 879.1 526.6 875.3 523.7 C 872.2 521.4 868.1 520.8 864.4 521.5 Z" />
<path fill="#f9f9f9" stroke="#f9f9f9" stroke-width="0.09375" opacity="1.00" d=" M 1063.0 511.0 C 1071.0 505.3 1081.5 503.8 1091.0 505.9 C 1098.0 507.4 1104.3 512.2 1107.5 518.6 C 1112.6 528.0 1112.1 539.0 1111.3 549.4 C 1111.1 550.4 1111.3 552.6 1109.6 552.4 C 1094.1 553.1 1078.5 552.2 1062.9 552.9 C 1063.1 557.8 1064.0 562.9 1067.2 566.8 C 1070.9 571.7 1078.5 573.1 1083.6 569.6 C 1086.9 567.6 1089.0 564.3 1091.5 561.5 C 1097.2 561.1 1102.7 563.1 1108.2 564.2 C 1105.0 572.2 1099.3 579.6 1091.4 583.5 C 1082.4 588.0 1071.3 588.2 1062.3 583.7 C 1055.0 579.9 1049.5 572.9 1046.9 565.1 C 1043.8 555.6 1044.2 545.2 1046.7 535.6 C 1049.3 526.0 1054.7 516.8 1063.0 511.0 M 1073.4 523.5 C 1068.4 527.2 1066.4 533.4 1065.1 539.2 C 1074.9 539.7 1084.7 539.6 1094.5 539.2 C 1094.4 533.7 1094.1 527.3 1089.7 523.3 C 1085.3 519.1 1077.9 519.6 1073.4 523.5 Z" />
<path fill="#f9f9f9" stroke="#f9f9f9" stroke-width="0.09375" opacity="1.00" d=" M 1149.1 515.8 C 1155.9 510.3 1163.8 504.9 1173.0 505.0 C 1180.0 504.4 1187.1 508.5 1190.0 514.9 C 1192.7 520.9 1192.0 527.7 1191.0 534.0 C 1188.0 551.0 1184.9 567.9 1181.7 584.8 C 1175.4 585.2 1169.2 585.1 1163.0 585.0 C 1165.2 566.2 1170.3 547.8 1172.3 528.9 C 1172.9 524.7 1169.5 519.9 1165.0 520.3 C 1158.8 520.8 1153.4 525.1 1150.1 530.1 C 1145.7 536.5 1144.7 544.4 1142.9 551.8 C 1140.8 562.8 1139.1 573.8 1136.8 584.8 C 1130.5 585.3 1124.2 585.3 1117.9 584.8 C 1122.1 558.8 1127.7 533.0 1132.2 507.1 C 1138.2 506.5 1144.2 506.6 1150.2 506.8 C 1149.9 509.8 1149.5 512.8 1149.1 515.8 Z" />
<path fill="#f9f9f9" stroke="#f9f9f9" stroke-width="0.09375" opacity="1.00" d=" M 1287.1 507.1 C 1292.1 504.1 1298.3 505.1 1303.6 506.8 C 1301.8 512.3 1299.7 517.9 1297.2 523.1 C 1293.2 524.4 1288.7 523.8 1284.8 525.8 C 1278.4 528.3 1275.3 534.9 1272.8 540.8 C 1267.3 554.9 1267.2 570.3 1262.7 584.7 C 1256.6 585.5 1250.4 585.2 1244.3 584.9 C 1247.9 563.6 1251.7 542.4 1256.0 521.2 C 1257.0 516.5 1258.0 511.8 1258.6 507.1 C 1264.4 506.3 1270.3 506.7 1276.2 506.8 C 1275.8 510.7 1275.1 514.6 1274.8 518.6 C 1279.0 514.8 1281.9 509.7 1287.1 507.1 Z" />
<path fill="#f9f9f9" stroke="#f9f9f9" stroke-width="0.09375" opacity="1.00" d=" M 1333.4 505.6 C 1341.9 504.4 1351.1 505.0 1358.6 509.5 C 1365.1 513.8 1369.8 520.8 1371.6 528.3 C 1375.5 544.6 1371.5 562.8 1360.3 575.3 C 1348.7 588.6 1326.7 591.1 1312.5 580.5 C 1304.6 574.6 1300.8 564.7 1300.3 555.1 C 1299.8 543.0 1302.2 530.3 1309.4 520.4 C 1315.0 512.6 1323.7 506.8 1333.4 505.6 M 1336.4 521.6 C 1328.0 523.9 1323.3 532.4 1321.3 540.4 C 1319.2 548.6 1318.0 558.4 1323.5 565.5 C 1328.3 572.0 1338.8 571.8 1344.0 566.0 C 1350.5 559.1 1353.8 549.4 1354.0 540.0 C 1354.1 535.1 1353.6 529.7 1350.3 525.7 C 1347.0 521.8 1341.3 520.4 1336.4 521.6 Z" />
<path fill="#f9f9f9" stroke="#f9f9f9" stroke-width="0.09375" opacity="1.00" d=" M 1532.0 508.0 C 1540.6 504.3 1550.5 504.3 1559.5 506.5 C 1568.1 508.6 1574.8 517.0 1574.2 526.0 C 1573.5 545.8 1565.1 564.9 1568.0 585.0 C 1562.3 585.1 1556.6 585.0 1550.9 585.1 C 1549.9 582.6 1549.1 580.1 1548.2 577.6 C 1544.2 581.0 1539.9 584.3 1534.8 585.9 C 1528.6 587.9 1521.3 587.1 1516.2 582.8 C 1504.3 572.6 1505.5 550.2 1519.6 542.5 C 1530.5 537.1 1543.0 538.1 1554.5 535.4 C 1555.3 531.9 1556.4 528.2 1555.2 524.7 C 1553.5 521.4 1549.5 520.1 1546.1 520.2 C 1540.7 520.4 1536.3 524.3 1533.6 528.7 C 1527.7 528.8 1521.8 528.0 1515.9 527.5 C 1518.2 519.1 1523.9 511.4 1532.0 508.0 M 1530.6 554.5 C 1525.0 557.6 1524.9 567.4 1531.0 570.0 C 1536.9 572.3 1543.8 569.3 1547.3 564.3 C 1550.2 559.9 1551.2 554.7 1552.1 549.6 C 1544.8 549.7 1537.1 550.8 1530.6 554.5 Z" />
<path fill="#f9f9f9" stroke="#f9f9f9" stroke-width="0.09375" opacity="1.00" d=" M 1593.4 521.4 C 1599.6 510.3 1613.1 502.1 1625.9 506.0 C 1632.9 507.8 1636.8 514.2 1641.4 519.2 C 1642.1 515.0 1642.8 510.8 1643.9 506.7 C 1649.6 506.7 1655.4 506.5 1661.2 506.9 C 1657.7 530.6 1652.7 554.0 1648.3 577.6 C 1646.0 587.5 1644.8 598.2 1638.6 606.6 C 1633.2 613.8 1623.7 616.4 1615.1 616.7 C 1605.9 617.1 1595.9 616.3 1588.5 610.5 C 1582.3 605.5 1581.6 596.9 1581.6 589.5 C 1587.1 589.8 1592.8 590.3 1598.2 591.8 C 1603.0 592.9 1603.4 599.6 1608.1 600.9 C 1613.5 602.2 1620.1 601.3 1623.5 596.6 C 1627.2 591.3 1628.0 584.7 1628.5 578.4 C 1622.8 580.9 1617.4 584.8 1611.0 585.2 C 1604.5 585.8 1597.8 583.5 1593.4 578.6 C 1587.9 572.8 1586.1 564.7 1585.7 556.9 C 1584.9 544.7 1587.5 532.2 1593.4 521.4 M 1620.4 520.6 C 1613.8 522.3 1610.0 528.7 1607.7 534.7 C 1605.0 542.1 1603.3 550.3 1604.9 558.1 C 1606.0 562.8 1609.0 567.9 1614.1 569.0 C 1619.2 570.2 1624.5 567.5 1627.6 563.6 C 1634.6 555.4 1636.4 543.9 1635.4 533.4 C 1634.3 526.5 1628.0 519.1 1620.4 520.6 Z" />
<path fill="#f9f9f9" stroke="#f9f9f9" stroke-width="0.09375" opacity="1.00" d=" M 1763.4 515.4 C 1772.9 505.3 1788.8 502.1 1801.5 507.5 C 1811.4 511.8 1816.5 522.8 1817.2 533.0 C 1817.5 539.4 1817.7 546.0 1816.3 552.3 C 1800.4 553.2 1784.5 552.2 1768.7 552.8 C 1768.5 557.9 1769.6 563.1 1772.9 567.1 C 1776.7 571.6 1783.8 572.9 1788.9 569.8 C 1792.3 567.6 1794.8 564.2 1797.3 561.0 C 1802.9 561.7 1808.5 562.9 1814.0 564.2 C 1811.5 569.6 1808.2 574.7 1803.9 578.8 C 1794.4 587.5 1779.7 589.5 1768.3 583.9 C 1762.2 580.9 1757.4 575.6 1754.3 569.7 C 1750.3 561.7 1749.7 552.4 1750.7 543.7 C 1752.0 533.3 1756.1 523.0 1763.4 515.4 M 1779.3 523.3 C 1774.2 526.9 1772.0 533.2 1770.8 539.2 C 1780.6 539.7 1790.4 539.6 1800.2 539.2 C 1799.9 534.2 1799.8 528.6 1796.5 524.5 C 1792.4 519.4 1784.2 519.2 1779.3 523.3 Z" />
<path fill="#f9f9f9" stroke="#f9f9f9" stroke-width="0.09375" opacity="1.00" d=" M 591.5 507.1 C 598.0 506.4 604.5 506.5 610.9 507.0 C 607.7 525.4 603.5 543.5 600.8 562.0 C 600.1 566.0 602.7 570.9 607.0 571.4 C 611.8 571.7 616.4 569.1 619.8 565.8 C 625.4 560.4 627.8 552.8 629.2 545.4 C 631.7 532.6 633.9 519.8 636.4 507.0 C 642.7 506.4 649.0 506.6 655.3 506.8 C 650.9 532.9 645.8 558.9 640.8 584.9 C 635.1 585.2 629.4 585.1 623.7 585.0 C 623.9 581.9 624.2 578.8 624.2 575.7 C 617.8 580.9 610.7 586.5 602.1 586.9 C 594.8 587.9 586.7 584.3 583.5 577.4 C 579.9 569.8 581.5 561.1 583.0 553.2 C 585.9 537.8 588.7 522.4 591.5 507.1 Z" />
<path fill="#999999" stroke="#999999" stroke-width="0.09375" opacity="1.00" d=" M 2056.3 560.1 C 2060.1 560.2 2063.9 560.2 2067.7 560.2 C 2067.9 572.0 2068.0 583.7 2067.7 595.5 C 2063.9 595.5 2060.1 595.5 2056.3 595.8 C 2055.9 583.9 2055.9 572.0 2056.3 560.1 Z" />
<path fill="#999999" stroke="#999999" stroke-width="0.09375" opacity="1.00" d=" M 242.7 561.6 C 246.5 561.4 250.3 561.7 254.1 561.8 C 254.4 573.5 254.4 585.2 254.0 596.9 C 250.3 597.2 246.5 597.2 242.7 597.2 C 242.5 585.3 242.5 573.4 242.7 561.6 Z" />
</svg>
